<svg width="14" height="14" viewBox="0 0 14 14" fill="none" xmlns="http://www.w3.org/2000/svg">
<path d="M1.33325 5.96456C0.780967 5.96456 0.333252 6.41227 0.333252 6.96456C0.333252 7.51684 0.780967 7.96456 1.33325 7.96456V5.96456ZM12.9999 6.96456L13.707 7.67167C13.8946 7.48413 13.9999 7.22978 13.9999 6.96456C13.9999 6.69934 13.8946 6.44499 13.707 6.25745L12.9999 6.96456ZM7.87369 0.424119C7.48317 0.0335945 6.85 0.0335945 6.45948 0.424119C6.06895 0.814643 6.06895 1.44781 6.45948 1.83833L7.87369 0.424119ZM6.45948 12.0908C6.06895 12.4813 6.06895 13.1145 6.45948 13.505C6.85 13.8955 7.48317 13.8955 7.87369 13.505L6.45948 12.0908ZM1.33325 7.96456H12.9999V5.96456H1.33325V7.96456ZM6.45948 1.83833L12.2928 7.67167L13.707 6.25745L7.87369 0.424119L6.45948 1.83833ZM12.2928 6.25745L6.45948 12.0908L7.87369 13.505L13.707 7.67167L12.2928 6.25745Z" fill="#4397A4"/>
</svg>
